<mxfile host="app.diagrams.net" modified="2021-12-25T15:43:06.792Z" agent="5.0 (X11)" etag="_x5D6csRpQH1oRUqfXBk" version="16.0.0" type="github">
  <diagram id="U0X0WWW908KA8E297ZGL" name="Page-1">
    <mxGraphModel dx="1043" dy="557" grid="1" gridSize="10" guides="1" tooltips="1" connect="1" arrows="1" fold="1" page="1" pageScale="1" pageWidth="827" pageHeight="1169" math="0" shadow="0">
      <root>
        <mxCell id="0" />
        <mxCell id="1" parent="0" />
        <mxCell id="TdoMDCVOX5ohGH5tXrt0-7" style="edgeStyle=orthogonalEdgeStyle;rounded=0;orthogonalLoop=1;jettySize=auto;html=1;entryX=0.5;entryY=0;entryDx=0;entryDy=0;" edge="1" parent="1" source="TdoMDCVOX5ohGH5tXrt0-1" target="TdoMDCVOX5ohGH5tXrt0-2">
          <mxGeometry relative="1" as="geometry" />
        </mxCell>
        <mxCell id="TdoMDCVOX5ohGH5tXrt0-1" value="Начало" style="ellipse;whiteSpace=wrap;html=1;" vertex="1" parent="1">
          <mxGeometry x="340" y="20" width="120" height="80" as="geometry" />
        </mxCell>
        <mxCell id="TdoMDCVOX5ohGH5tXrt0-8" style="edgeStyle=orthogonalEdgeStyle;rounded=0;orthogonalLoop=1;jettySize=auto;html=1;entryX=0.5;entryY=0;entryDx=0;entryDy=0;" edge="1" parent="1" source="TdoMDCVOX5ohGH5tXrt0-2" target="TdoMDCVOX5ohGH5tXrt0-3">
          <mxGeometry relative="1" as="geometry" />
        </mxCell>
        <mxCell id="TdoMDCVOX5ohGH5tXrt0-14" style="edgeStyle=orthogonalEdgeStyle;rounded=0;orthogonalLoop=1;jettySize=auto;html=1;" edge="1" parent="1" source="TdoMDCVOX5ohGH5tXrt0-2" target="TdoMDCVOX5ohGH5tXrt0-13">
          <mxGeometry relative="1" as="geometry" />
        </mxCell>
        <mxCell id="TdoMDCVOX5ohGH5tXrt0-2" value="Ввод: n = Введите число" style="shape=parallelogram;perimeter=parallelogramPerimeter;whiteSpace=wrap;html=1;fixedSize=1;" vertex="1" parent="1">
          <mxGeometry x="310" y="130" width="180" height="60" as="geometry" />
        </mxCell>
        <mxCell id="TdoMDCVOX5ohGH5tXrt0-9" style="edgeStyle=orthogonalEdgeStyle;rounded=0;orthogonalLoop=1;jettySize=auto;html=1;entryX=0.5;entryY=0;entryDx=0;entryDy=0;" edge="1" parent="1" source="TdoMDCVOX5ohGH5tXrt0-3" target="TdoMDCVOX5ohGH5tXrt0-4">
          <mxGeometry relative="1" as="geometry" />
        </mxCell>
        <mxCell id="TdoMDCVOX5ohGH5tXrt0-3" value="String(n)" style="ellipse;whiteSpace=wrap;html=1;" vertex="1" parent="1">
          <mxGeometry x="80" y="220" width="120" height="80" as="geometry" />
        </mxCell>
        <mxCell id="TdoMDCVOX5ohGH5tXrt0-10" style="edgeStyle=orthogonalEdgeStyle;rounded=0;orthogonalLoop=1;jettySize=auto;html=1;entryX=0.5;entryY=0;entryDx=0;entryDy=0;" edge="1" parent="1" source="TdoMDCVOX5ohGH5tXrt0-4" target="TdoMDCVOX5ohGH5tXrt0-5">
          <mxGeometry relative="1" as="geometry" />
        </mxCell>
        <mxCell id="TdoMDCVOX5ohGH5tXrt0-4" value="count = 0" style="rounded=0;whiteSpace=wrap;html=1;" vertex="1" parent="1">
          <mxGeometry x="80" y="350" width="120" height="60" as="geometry" />
        </mxCell>
        <mxCell id="TdoMDCVOX5ohGH5tXrt0-11" style="edgeStyle=orthogonalEdgeStyle;rounded=0;orthogonalLoop=1;jettySize=auto;html=1;entryX=0.5;entryY=0;entryDx=0;entryDy=0;" edge="1" parent="1" source="TdoMDCVOX5ohGH5tXrt0-5" target="TdoMDCVOX5ohGH5tXrt0-6">
          <mxGeometry relative="1" as="geometry" />
        </mxCell>
        <mxCell id="TdoMDCVOX5ohGH5tXrt0-5" value="i in range(1, n - 1)" style="rhombus;whiteSpace=wrap;html=1;" vertex="1" parent="1">
          <mxGeometry x="75" y="470" width="130" height="80" as="geometry" />
        </mxCell>
        <mxCell id="TdoMDCVOX5ohGH5tXrt0-12" style="edgeStyle=orthogonalEdgeStyle;rounded=0;orthogonalLoop=1;jettySize=auto;html=1;entryX=1;entryY=0.5;entryDx=0;entryDy=0;" edge="1" parent="1" source="TdoMDCVOX5ohGH5tXrt0-6" target="TdoMDCVOX5ohGH5tXrt0-5">
          <mxGeometry relative="1" as="geometry">
            <Array as="points">
              <mxPoint x="240" y="645" />
              <mxPoint x="240" y="510" />
            </Array>
          </mxGeometry>
        </mxCell>
        <mxCell id="TdoMDCVOX5ohGH5tXrt0-22" style="edgeStyle=orthogonalEdgeStyle;rounded=0;orthogonalLoop=1;jettySize=auto;html=1;entryX=0.5;entryY=0;entryDx=0;entryDy=0;" edge="1" parent="1" source="TdoMDCVOX5ohGH5tXrt0-6" target="TdoMDCVOX5ohGH5tXrt0-21">
          <mxGeometry relative="1" as="geometry" />
        </mxCell>
        <mxCell id="TdoMDCVOX5ohGH5tXrt0-6" value="count += 1" style="rounded=0;whiteSpace=wrap;html=1;" vertex="1" parent="1">
          <mxGeometry x="80" y="615" width="120" height="60" as="geometry" />
        </mxCell>
        <mxCell id="TdoMDCVOX5ohGH5tXrt0-16" style="edgeStyle=orthogonalEdgeStyle;rounded=0;orthogonalLoop=1;jettySize=auto;html=1;entryX=0.5;entryY=0;entryDx=0;entryDy=0;" edge="1" parent="1" source="TdoMDCVOX5ohGH5tXrt0-13" target="TdoMDCVOX5ohGH5tXrt0-15">
          <mxGeometry relative="1" as="geometry" />
        </mxCell>
        <mxCell id="TdoMDCVOX5ohGH5tXrt0-13" value="Equation(n)" style="ellipse;whiteSpace=wrap;html=1;" vertex="1" parent="1">
          <mxGeometry x="600" y="220" width="120" height="80" as="geometry" />
        </mxCell>
        <mxCell id="TdoMDCVOX5ohGH5tXrt0-25" style="edgeStyle=orthogonalEdgeStyle;rounded=0;orthogonalLoop=1;jettySize=auto;html=1;entryX=0.5;entryY=0;entryDx=0;entryDy=0;" edge="1" parent="1" source="TdoMDCVOX5ohGH5tXrt0-15" target="TdoMDCVOX5ohGH5tXrt0-24">
          <mxGeometry relative="1" as="geometry" />
        </mxCell>
        <mxCell id="TdoMDCVOX5ohGH5tXrt0-15" value="n * (n + 1) / 2" style="rounded=0;whiteSpace=wrap;html=1;" vertex="1" parent="1">
          <mxGeometry x="600" y="350" width="120" height="60" as="geometry" />
        </mxCell>
        <mxCell id="TdoMDCVOX5ohGH5tXrt0-17" value="Вывод: Результат работы ряда String(n)" style="shape=parallelogram;perimeter=parallelogramPerimeter;whiteSpace=wrap;html=1;fixedSize=1;" vertex="1" parent="1">
          <mxGeometry x="35" y="870" width="210" height="60" as="geometry" />
        </mxCell>
        <mxCell id="TdoMDCVOX5ohGH5tXrt0-18" value="Вывод: Результат работы функции Equanion(n)" style="shape=parallelogram;perimeter=parallelogramPerimeter;whiteSpace=wrap;html=1;fixedSize=1;" vertex="1" parent="1">
          <mxGeometry x="590" y="615" width="140" height="60" as="geometry" />
        </mxCell>
        <mxCell id="TdoMDCVOX5ohGH5tXrt0-23" style="edgeStyle=orthogonalEdgeStyle;rounded=0;orthogonalLoop=1;jettySize=auto;html=1;entryX=0.5;entryY=0;entryDx=0;entryDy=0;" edge="1" parent="1" source="TdoMDCVOX5ohGH5tXrt0-21" target="TdoMDCVOX5ohGH5tXrt0-17">
          <mxGeometry relative="1" as="geometry" />
        </mxCell>
        <mxCell id="TdoMDCVOX5ohGH5tXrt0-35" style="edgeStyle=orthogonalEdgeStyle;rounded=0;orthogonalLoop=1;jettySize=auto;html=1;entryX=0;entryY=0.5;entryDx=0;entryDy=0;" edge="1" parent="1" source="TdoMDCVOX5ohGH5tXrt0-21" target="TdoMDCVOX5ohGH5tXrt0-28">
          <mxGeometry relative="1" as="geometry" />
        </mxCell>
        <mxCell id="TdoMDCVOX5ohGH5tXrt0-21" value="string = String(n)" style="rounded=0;whiteSpace=wrap;html=1;" vertex="1" parent="1">
          <mxGeometry x="80" y="750" width="120" height="60" as="geometry" />
        </mxCell>
        <mxCell id="TdoMDCVOX5ohGH5tXrt0-27" style="edgeStyle=orthogonalEdgeStyle;rounded=0;orthogonalLoop=1;jettySize=auto;html=1;entryX=0.5;entryY=0;entryDx=0;entryDy=0;" edge="1" parent="1" source="TdoMDCVOX5ohGH5tXrt0-24" target="TdoMDCVOX5ohGH5tXrt0-18">
          <mxGeometry relative="1" as="geometry">
            <Array as="points">
              <mxPoint x="660" y="500" />
              <mxPoint x="660" y="500" />
            </Array>
          </mxGeometry>
        </mxCell>
        <mxCell id="TdoMDCVOX5ohGH5tXrt0-34" style="edgeStyle=orthogonalEdgeStyle;rounded=0;orthogonalLoop=1;jettySize=auto;html=1;entryX=1;entryY=0.5;entryDx=0;entryDy=0;" edge="1" parent="1" source="TdoMDCVOX5ohGH5tXrt0-24" target="TdoMDCVOX5ohGH5tXrt0-28">
          <mxGeometry relative="1" as="geometry" />
        </mxCell>
        <mxCell id="TdoMDCVOX5ohGH5tXrt0-24" value="equation = Equation(n)" style="rounded=0;whiteSpace=wrap;html=1;" vertex="1" parent="1">
          <mxGeometry x="600" y="480" width="120" height="60" as="geometry" />
        </mxCell>
        <mxCell id="TdoMDCVOX5ohGH5tXrt0-39" style="edgeStyle=orthogonalEdgeStyle;rounded=0;orthogonalLoop=1;jettySize=auto;html=1;" edge="1" parent="1" source="TdoMDCVOX5ohGH5tXrt0-28" target="TdoMDCVOX5ohGH5tXrt0-29">
          <mxGeometry relative="1" as="geometry" />
        </mxCell>
        <mxCell id="TdoMDCVOX5ohGH5tXrt0-28" value="Comparing(string, equation)" style="ellipse;whiteSpace=wrap;html=1;" vertex="1" parent="1">
          <mxGeometry x="354" y="220" width="120" height="80" as="geometry" />
        </mxCell>
        <mxCell id="TdoMDCVOX5ohGH5tXrt0-36" style="edgeStyle=orthogonalEdgeStyle;rounded=0;orthogonalLoop=1;jettySize=auto;html=1;entryX=1;entryY=0.5;entryDx=0;entryDy=0;" edge="1" parent="1" source="TdoMDCVOX5ohGH5tXrt0-29" target="TdoMDCVOX5ohGH5tXrt0-32">
          <mxGeometry relative="1" as="geometry">
            <Array as="points">
              <mxPoint x="510" y="380" />
              <mxPoint x="510" y="510" />
            </Array>
          </mxGeometry>
        </mxCell>
        <mxCell id="TdoMDCVOX5ohGH5tXrt0-37" style="edgeStyle=orthogonalEdgeStyle;rounded=0;orthogonalLoop=1;jettySize=auto;html=1;entryX=0;entryY=0.5;entryDx=0;entryDy=0;" edge="1" parent="1" source="TdoMDCVOX5ohGH5tXrt0-29" target="TdoMDCVOX5ohGH5tXrt0-33">
          <mxGeometry relative="1" as="geometry">
            <Array as="points">
              <mxPoint x="320" y="380" />
              <mxPoint x="320" y="645" />
            </Array>
          </mxGeometry>
        </mxCell>
        <mxCell id="TdoMDCVOX5ohGH5tXrt0-29" value="string = equation" style="rhombus;whiteSpace=wrap;html=1;" vertex="1" parent="1">
          <mxGeometry x="374" y="340" width="80" height="80" as="geometry" />
        </mxCell>
        <mxCell id="TdoMDCVOX5ohGH5tXrt0-30" value="Да" style="text;html=1;strokeColor=none;fillColor=none;align=center;verticalAlign=middle;whiteSpace=wrap;rounded=0;" vertex="1" parent="1">
          <mxGeometry x="420" y="340" width="60" height="30" as="geometry" />
        </mxCell>
        <mxCell id="TdoMDCVOX5ohGH5tXrt0-31" value="Нет" style="text;html=1;strokeColor=none;fillColor=none;align=center;verticalAlign=middle;whiteSpace=wrap;rounded=0;" vertex="1" parent="1">
          <mxGeometry x="350" y="340" width="60" height="30" as="geometry" />
        </mxCell>
        <mxCell id="TdoMDCVOX5ohGH5tXrt0-32" value="Вывод: Результаты функций одинаковы" style="shape=parallelogram;perimeter=parallelogramPerimeter;whiteSpace=wrap;html=1;fixedSize=1;" vertex="1" parent="1">
          <mxGeometry x="337" y="480" width="154" height="60" as="geometry" />
        </mxCell>
        <mxCell id="TdoMDCVOX5ohGH5tXrt0-33" value="Вывод: результаты функций различны" style="shape=parallelogram;perimeter=parallelogramPerimeter;whiteSpace=wrap;html=1;fixedSize=1;" vertex="1" parent="1">
          <mxGeometry x="341" y="615" width="150" height="60" as="geometry" />
        </mxCell>
      </root>
    </mxGraphModel>
  </diagram>
</mxfile>
